# xmcd
#
# Track frame offsets:
# 183
# 15013
# 23610
# 39505
# 57045
# 76450
# 94338
# 109813
# 125485
#
# Disc length: 1974 seconds
#
#
# Revision: 1
# Processed by: cddbd v1.4PL0 Copyright (c) Steve Scherf et al.
# Submitted via: FreeRIP 2.00 
#
DISCID=6007b409
DTITLE=B.B King - The World of B.B. King
DYEAR=1992
DGENRE=Blues
TTITLE0=B.B Boogie
TTITLE1=A New Day Of Driving
TTITLE2=Lonely Nights
TTITLE3=That Evil Child
TTITLE4=Sweet Sixteen
TTITLE5=Paying The Cost To Be The Boss
TTITLE6=Walkin' And Cryin'
TTITLE7=The Letter
TTITLE8=every day i have the blues
EXTD=
EXTT0=
EXTT1=
EXTT2=
EXTT3=
EXTT4=
EXTT5=
EXTT6=
EXTT7=
EXTT8=
PLAYORDER=
